<svg width="1728" height="481" viewBox="0 0 1728 481" fill="none" xmlns="http://www.w3.org/2000/svg">
<path d="M-0.5 388.542V390.262L1.10571 390.877L2 388.542C1.10571 390.877 1.10723 390.877 1.10964 390.878L1.11897 390.882L1.15374 390.895L1.28735 390.946C1.40473 390.99 1.57854 391.056 1.80754 391.141C2.26554 391.312 2.9443 391.563 3.83388 391.886C5.61301 392.531 8.23558 393.464 11.6221 394.617C18.3948 396.924 28.2246 400.114 40.4753 403.658C64.9725 410.744 99.1722 419.249 137.98 424.921C215.477 436.246 311.884 436.352 385.973 390.67C458.655 345.856 539.249 340.593 601.83 346.605C633.104 349.609 659.823 355.425 678.718 360.488C688.163 363.02 695.649 365.361 700.766 367.067C703.324 367.92 705.289 368.614 706.611 369.093C707.272 369.333 707.772 369.519 708.104 369.644C708.203 369.681 708.287 369.713 708.357 369.739L708.477 369.785L708.567 369.82L708.588 369.828L708.593 369.83C708.593 369.83 708.593 369.83 708.654 369.673L708.593 369.83L708.69 369.868L708.791 369.897C751.117 382.423 786.37 393.61 816.738 403.247C833.811 408.665 849.34 413.594 863.715 417.994C903.577 430.198 934.467 438.314 964.233 441.325C1023.89 447.359 1078.65 432.837 1191.87 390.886C1417.2 307.391 1608.49 404.516 1728.75 474.163L1732.5 476.337V472V0V-2.5H1730H2H-0.5V0V388.542Z" stroke="#01B7EE" stroke-width="5"/>
</svg>
