<svg width="216" height="216" viewBox="0 0 216 216" fill="none" xmlns="http://www.w3.org/2000/svg">
<circle cx="108" cy="82" r="70" fill="#FFCCED"/>
<g filter="url(#filter0_d_1438_5780)">
<circle cx="108" cy="82" r="42" fill="#FF80D3"/>
</g>
<path d="M121.454 62.2806L121.455 62.2802L121.455 62.28V62.2745C126.608 63.6594 131.13 66.77 134.267 71.0872C140.327 79.4323 140.171 90.6382 134.199 98.746L134.199 98.746V98.7464V107.831C134.199 109.03 133.23 109.999 132.03 109.999C131.8 109.999 131.576 109.959 131.359 109.891L122.743 107.084L122.743 107.084L122.742 107.084C115.482 109.484 107.564 108.162 101.524 103.763L101.557 103.736L101.557 103.736L101.557 103.735L101.557 103.735L101.557 103.735C99.2252 103.607 96.8796 103.146 94.6086 102.339L94.6082 102.339L86.0256 105.044C85.7542 105.129 85.4685 105.161 85.1849 105.136C84.9013 105.111 84.6254 105.031 84.373 104.899C84.1206 104.767 83.8966 104.587 83.7138 104.369C83.531 104.151 83.3931 103.899 83.3078 103.627C83.24 103.424 83.2062 103.207 83.2062 102.99L83.1519 94.0009H83.1521L83.1518 94.0005C76.4947 85.3842 76.2167 73.2564 82.7451 64.2401C90.8461 53.1426 106.425 50.6818 117.522 58.749C118.986 59.8065 120.295 60.9929 121.454 62.2809L121.454 62.2806ZM88.0325 99.2887L88.033 99.2887L88.0344 99.2887L94.7439 97.1877L95.5573 97.5266C103.998 100.815 113.719 98.0622 119.15 90.6115C125.624 81.7033 123.638 69.1952 114.675 62.6801C105.74 56.2124 93.2116 58.1921 86.6761 67.1545C81.3068 74.551 81.6864 84.632 87.4219 91.6285L87.4223 91.6281L87.4219 91.6285L87.9641 92.2385L88.0319 99.2887L88.0325 99.2887ZM126.092 69.7712L126.091 69.7717L126.091 69.7721L126.091 69.7722C129.101 77.419 128.26 86.3877 123.081 93.526C119.908 97.882 115.407 101.091 110.255 102.671L110.255 102.672L110.255 102.672L110.255 102.672L110.268 102.679L110.268 102.679C114.017 103.73 118.065 103.614 121.861 102.204L121.861 102.204L121.861 102.204L122.675 101.865L129.318 104.103L129.318 104.102L129.319 104.101L129.319 104.1L129.251 97.0517L129.793 96.374C134.98 89.947 135.258 80.754 130.336 74.0016C129.122 72.3135 127.692 70.917 126.132 69.7983L126.092 69.7712ZM109.729 78.9561C109.729 77.4582 110.942 76.245 112.508 76.245C113.938 76.245 115.151 77.4582 115.151 78.9561C115.151 80.4541 113.938 81.6673 112.508 81.6673C110.942 81.6673 109.729 80.454 109.729 78.9561ZM90.7466 78.9561C90.7466 77.4582 91.9599 76.245 93.5256 76.245C94.9557 76.245 96.169 77.4582 96.169 78.9561C96.169 80.4541 94.9557 81.6673 93.5256 81.6673C91.9599 81.6673 90.7466 80.454 90.7466 78.9561ZM100.238 78.9561C100.238 77.4582 101.451 76.245 103.017 76.245C104.447 76.245 105.66 77.4582 105.66 78.9561C105.66 80.4541 104.447 81.6673 103.017 81.6673C101.451 81.6673 100.238 80.454 100.238 78.9561Z" fill="#151515" stroke="#E7F4CC" stroke-width="0.00111607"/>
<defs>
<filter id="filter0_d_1438_5780" x="0.7173" y="0.830383" width="214.565" height="214.565" filterUnits="userSpaceOnUse" color-interpolation-filters="sRGB">
<feFlood flood-opacity="0" result="BackgroundImageFix"/>
<feColorMatrix in="SourceAlpha" type="matrix" values="0 0 0 0 0 0 0 0 0 0 0 0 0 0 0 0 0 0 127 0" result="hardAlpha"/>
<feOffset dy="26.1131"/>
<feGaussianBlur stdDeviation="32.6413"/>
<feColorMatrix type="matrix" values="0 0 0 0 0.146118 0 0 0 0 0.172389 0 0 0 0 0.441667 0 0 0 0.1 0"/>
<feBlend mode="normal" in2="BackgroundImageFix" result="effect1_dropShadow_1438_5780"/>
<feBlend mode="normal" in="SourceGraphic" in2="effect1_dropShadow_1438_5780" result="shape"/>
</filter>
</defs>
</svg>
