<svg width="28" height="30" viewBox="0 0 28 30" fill="none" xmlns="http://www.w3.org/2000/svg">
<path d="M15.2055 0.537109H12.7948C12.5805 0.537109 12.4734 0.644252 12.4734 0.858538V13.4746H0.501116C0.28683 13.4746 0.179688 13.5818 0.179688 13.796V16.2068C0.179688 16.421 0.28683 16.5282 0.501116 16.5282H12.4734V29.1443C12.4734 29.3585 12.5805 29.4657 12.7948 29.4657H15.2055C15.4198 29.4657 15.527 29.3585 15.527 29.1443V16.5282H27.5011C27.7154 16.5282 27.8225 16.421 27.8225 16.2068V13.796C27.8225 13.5818 27.7154 13.4746 27.5011 13.4746H15.527V0.858538C15.527 0.644252 15.4198 0.537109 15.2055 0.537109Z" fill="#0199C6" fill-opacity="0.85"/>
</svg>
