<svg width="64" height="64" viewBox="0 0 64 64" fill="none" xmlns="http://www.w3.org/2000/svg">
<g clip-path="url(#clip0_1005_3122)">
<path d="M56.4571 52.6357C56.4714 52.6143 56.4929 52.5929 56.5071 52.5714C61.1857 47.0071 64 39.8357 64 32C64 24.1643 61.1857 16.9929 56.5143 11.4286C56.5 11.4071 56.4786 11.3929 56.4643 11.3714C56.3857 11.2786 56.3143 11.1929 56.2357 11.1071C56.2071 11.0714 56.1786 11.0429 56.15 11.0071L55.8571 10.6714L55.85 10.6643C55.7429 10.5429 55.6286 10.4214 55.5214 10.3L55.5143 10.2929C55.2857 10.05 55.0571 9.80714 54.8214 9.57143L54.8143 9.56429L54.4714 9.22143L54.45 9.2C54.3429 9.09286 54.2357 8.99286 54.1286 8.89286C54.0929 8.85714 54.0571 8.82143 54.0143 8.78572C53.9429 8.71429 53.8714 8.65 53.8 8.58571C53.7786 8.56429 53.75 8.54286 53.7286 8.51429C48.0286 3.22857 40.3929 0 32 0C23.6071 0 15.9714 3.22857 10.2643 8.51429C10.2429 8.53571 10.2143 8.55714 10.1929 8.58571C10.1214 8.65 10.05 8.72143 9.97857 8.79286C9.94286 8.82857 9.90714 8.86429 9.86429 8.9C9.75714 9 9.65 9.10714 9.54286 9.20714L9.52143 9.22857L9.17857 9.57143L9.17143 9.57857C8.93571 9.81429 8.70714 10.0571 8.47857 10.3L8.47143 10.3071C8.35714 10.4286 8.25 10.55 8.14286 10.6714L8.13571 10.6786C8.03571 10.7857 7.93571 10.9 7.84286 11.0143C7.81429 11.05 7.78572 11.0786 7.75714 11.1143C7.67857 11.2 7.60714 11.2929 7.52857 11.3786C7.51429 11.4 7.49286 11.4143 7.47857 11.4357C2.81429 16.9929 0 24.1643 0 32C0 39.8357 2.81429 47.0071 7.48571 52.5714C7.5 52.5929 7.52143 52.6143 7.53571 52.6357L7.75714 52.9C7.78572 52.9357 7.81429 52.9643 7.84286 53L8.13571 53.3357C8.13571 53.3429 8.14286 53.3429 8.14286 53.35C8.25 53.4714 8.35714 53.5929 8.47143 53.7071L8.47857 53.7143C8.70714 53.9571 8.93571 54.2 9.16429 54.4357L9.17143 54.4429C9.28571 54.5571 9.39286 54.6714 9.50714 54.7786L9.52857 54.8C9.76429 55.0357 10.0071 55.2643 10.25 55.4857C15.9714 60.7714 23.6071 64 32 64C40.3929 64 48.0286 60.7714 53.7357 55.4857C53.9791 55.2627 54.2172 55.034 54.45 54.8L54.4714 54.7786C54.5857 54.6643 54.7 54.5571 54.8071 54.4429L54.8143 54.4357C55.05 54.2 55.2786 53.9571 55.5 53.7143L55.5071 53.7071C55.6143 53.5857 55.7286 53.4714 55.8357 53.35C55.8357 53.3429 55.8429 53.3429 55.8429 53.3357C55.9429 53.2286 56.0429 53.1143 56.1357 53C56.1643 52.9643 56.1929 52.9357 56.2214 52.9C56.3022 52.8139 56.3808 52.7258 56.4571 52.6357ZM56.75 42.45C55.7643 44.7786 54.4643 46.9357 52.8786 48.8929C51.0927 47.3495 49.1401 46.0102 47.0571 44.9C47.8857 41.55 48.4 37.8714 48.5357 34H58.7857C58.5714 36.9214 57.8857 39.7571 56.75 42.45ZM58.7857 30H48.5357C48.4 26.1286 47.8857 22.45 47.0571 19.1C49.15 17.9857 51.1 16.6429 52.8786 15.1071C56.3255 19.3498 58.3874 24.5481 58.7857 30ZM42.45 7.25C45.2857 8.45 47.8643 10.1071 50.1357 12.1929C48.8162 13.3164 47.3959 14.3158 45.8929 15.1786C44.7714 11.9643 43.3357 9.17143 41.6643 6.93572C41.9286 7.03572 42.1929 7.14286 42.45 7.25ZM35.9786 57.2929C35.3214 57.8071 34.6643 58.2 34 58.4643V45.2143C36.8342 45.412 39.6214 46.0432 42.2643 47.0857C41.6714 48.8429 40.9857 50.4643 40.1929 51.9286C38.95 54.2429 37.4929 56.0929 35.9786 57.2929ZM40.1929 12.0714C40.9786 13.5429 41.6714 15.1643 42.2643 16.9143C39.6214 17.9568 36.8342 18.588 34 18.7857V5.54286C34.6571 5.80714 35.3214 6.19286 35.9786 6.71429C37.4929 7.90714 38.95 9.75714 40.1929 12.0714ZM34 41.2071V34H44.5357C44.4214 37.1571 44.0286 40.2214 43.3714 43.1286L43.35 43.2143C40.3524 42.0776 37.2001 41.4009 34 41.2071ZM34 30V22.7929C37.2714 22.5929 40.4143 21.9 43.35 20.7857L43.3714 20.8714C44.0286 23.7786 44.4214 26.8357 44.5357 30H34ZM30 34V41.2071C26.7286 41.4071 23.5857 42.1 20.65 43.2143L20.6286 43.1286C19.9714 40.2214 19.5786 37.1643 19.4643 34H30ZM19.4643 30C19.5786 26.8429 19.9714 23.7786 20.6286 20.8714L20.65 20.7857C23.5857 21.9 26.7214 22.5929 30 22.7929V30H19.4643ZM30 45.2143V58.4571C29.3429 58.1929 28.6786 57.8071 28.0214 57.2857C26.5071 56.0929 25.0429 54.2357 23.8 51.9214C23.0143 50.45 22.3214 48.8286 21.7286 47.0786C24.3857 46.0357 27.15 45.4143 30 45.2143ZM30 18.7857C27.1658 18.588 24.3786 17.9568 21.7357 16.9143C22.3286 15.1571 23.0143 13.5357 23.8071 12.0714C25.05 9.75714 26.5071 7.9 28.0286 6.70714C28.6857 6.19286 29.3429 5.8 30.0071 5.53571V18.7857H30ZM21.55 7.25C21.8143 7.14286 22.0714 7.03572 22.3357 6.93572C20.6643 9.17143 19.2286 11.9643 18.1071 15.1786C16.6071 14.3214 15.1857 13.3214 13.8643 12.1929C16.1357 10.1071 18.7143 8.45 21.55 7.25ZM7.25 21.55C8.23571 19.2214 9.53571 17.0643 11.1214 15.1071C12.9 16.6429 14.85 17.9857 16.9429 19.1C16.1143 22.45 15.6 26.1286 15.4643 30H5.21429C5.42857 27.0786 6.11429 24.2429 7.25 21.55ZM5.21429 34H15.4643C15.6 37.8714 16.1143 41.55 16.9429 44.9C14.8599 46.0102 12.9073 47.3495 11.1214 48.8929C7.6745 44.6502 5.61263 39.4519 5.21429 34ZM21.55 56.75C18.7143 55.55 16.1357 53.8929 13.8643 51.8071C15.1857 50.6786 16.6071 49.6857 18.1071 48.8214C19.2286 52.0357 20.6643 54.8286 22.3357 57.0643C22.0714 56.9643 21.8071 56.8571 21.55 56.75ZM42.45 56.75C42.1857 56.8571 41.9286 56.9643 41.6643 57.0643C43.3357 54.8286 44.7714 52.0357 45.8929 48.8214C47.3929 49.6786 48.8143 50.6786 50.1357 51.8071C47.8769 53.8842 45.2769 55.5563 42.45 56.75Z" fill="#003D4F"/>
</g>
<defs>
<clipPath id="clip0_1005_3122">
<rect width="64" height="64" fill="white"/>
</clipPath>
</defs>
</svg>
