<svg width="64" height="64" viewBox="0 0 64 64" fill="none" xmlns="http://www.w3.org/2000/svg">
<path d="M59.1432 50.5642H53.4289V44.8499C53.4289 44.5356 53.1717 44.2785 52.8574 44.2785H49.4289C49.1146 44.2785 48.8574 44.5356 48.8574 44.8499V50.5642H43.1432C42.8289 50.5642 42.5717 50.8213 42.5717 51.1356V54.5642C42.5717 54.8785 42.8289 55.1356 43.1432 55.1356H48.8574V60.8499C48.8574 61.1642 49.1146 61.4213 49.4289 61.4213H52.8574C53.1717 61.4213 53.4289 61.1642 53.4289 60.8499V55.1356H59.1432C59.4574 55.1356 59.7146 54.8785 59.7146 54.5642V51.1356C59.7146 50.8213 59.4574 50.5642 59.1432 50.5642ZM22.1074 31.0213C22.0431 30.3999 22.0074 29.7713 22.0074 29.1356C22.0074 27.9999 22.1146 26.8927 22.3146 25.8142C22.3646 25.557 22.2289 25.2927 21.9931 25.1856C21.0217 24.7499 20.1289 24.1499 19.3574 23.3927C18.4484 22.5114 17.7331 21.4502 17.2572 20.2769C16.7812 19.1036 16.5551 17.844 16.5931 16.5785C16.6574 14.2856 17.5789 12.107 19.186 10.4642C20.9503 8.65703 23.3217 7.67132 25.8431 7.69989C28.1217 7.72132 30.3217 8.59989 31.986 10.157C32.5503 10.6856 33.036 11.2713 33.4431 11.8999C33.586 12.1213 33.8646 12.2142 34.1074 12.1285C35.3646 11.6927 36.6931 11.3856 38.0574 11.2427C38.4574 11.1999 38.686 10.7713 38.5074 10.4142C36.186 5.82132 31.4431 2.64989 25.9574 2.56418C18.0431 2.44275 11.4431 8.93561 11.4431 16.8499C11.4431 21.3356 13.5074 25.3356 16.7431 27.957C14.4717 29.007 12.3789 30.457 10.5646 32.2713C6.65029 36.1785 4.436 41.3356 4.29315 46.8428C4.29124 46.919 4.30461 46.9948 4.33248 47.0658C4.36034 47.1368 4.40213 47.2015 4.45538 47.2561C4.50863 47.3107 4.57227 47.354 4.64255 47.3836C4.71283 47.4132 4.78832 47.4285 4.86458 47.4285H8.87172C9.17886 47.4285 9.436 47.1856 9.44315 46.8785C9.57886 42.7356 11.2574 38.857 14.2074 35.9142C16.3074 33.8142 18.8789 32.357 21.686 31.6499C21.9574 31.5713 22.1431 31.307 22.1074 31.0213ZM54.286 29.1356C54.286 21.3213 48.0074 14.9713 40.2217 14.8499C32.3074 14.7285 25.7146 21.2213 25.7146 29.1356C25.7146 33.6213 27.786 37.6213 31.0146 40.2427C28.7196 41.3065 26.6304 42.767 24.8431 44.557C20.9289 48.4642 18.7146 53.6213 18.5717 59.1213C18.5698 59.1976 18.5832 59.2734 18.611 59.3444C18.6389 59.4154 18.6807 59.4801 18.734 59.5346C18.7872 59.5892 18.8508 59.6326 18.9211 59.6622C18.9914 59.6918 19.0669 59.7071 19.1431 59.707H23.1431C23.4503 59.707 23.7074 59.4642 23.7146 59.157C23.8503 55.0142 25.5289 51.1356 28.4789 48.1927C31.5574 45.1142 35.6431 43.4213 40.0003 43.4213C47.886 43.4213 54.286 37.0285 54.286 29.1356ZM46.4646 35.5999C44.736 37.3285 42.4431 38.2785 40.0003 38.2785C37.5574 38.2785 35.2646 37.3285 33.536 35.5999C32.6734 34.7418 31.9919 33.7193 31.5318 32.593C31.0717 31.4666 30.8423 30.2594 30.8574 29.0427C30.8789 26.6999 31.8146 24.4356 33.4503 22.757C35.1646 20.9999 37.4574 20.0213 39.9074 19.9927C42.3289 19.9713 44.6789 20.9142 46.4074 22.607C48.1789 24.3427 49.1503 26.6642 49.1503 29.1356C49.1432 31.5785 48.1931 33.8713 46.4646 35.5999Z" fill="#003D4F"/>
</svg>
