<svg width="64" height="64" viewBox="0 0 64 64" fill="none" xmlns="http://www.w3.org/2000/svg">
<path d="M28.5693 44.5713C28.5693 45.4806 28.9305 46.3527 29.5735 46.9957C30.2165 47.6387 31.0885 47.9999 31.9978 47.9999C32.9072 47.9999 33.7792 47.6387 34.4222 46.9957C35.0652 46.3527 35.4264 45.4806 35.4264 44.5713C35.4264 43.662 35.0652 42.7899 34.4222 42.147C33.7792 41.504 32.9072 41.1427 31.9978 41.1427C31.0885 41.1427 30.2165 41.504 29.5735 42.147C28.9305 42.7899 28.5693 43.662 28.5693 44.5713ZM33.7121 36.5713C34.0264 36.5713 34.2836 36.3142 34.2836 35.9999V16.5713C34.2836 16.257 34.0264 15.9999 33.7121 15.9999H30.2836C29.9693 15.9999 29.7121 16.257 29.7121 16.5713V35.9999C29.7121 36.3142 29.9693 36.5713 30.2836 36.5713H33.7121ZM62.2835 23.1427H58.0478C57.8621 23.1427 57.6907 23.2285 57.5835 23.3785L49.9764 33.8642L46.4121 28.9499C46.3593 28.8763 46.2895 28.8165 46.2087 28.7754C46.1279 28.7344 46.0384 28.7134 45.9478 28.7142H41.7121C41.2478 28.7142 40.9764 29.2427 41.2478 29.6213L49.0478 40.3856C49.1546 40.5317 49.2943 40.6506 49.4557 40.7325C49.617 40.8145 49.7954 40.8572 49.9764 40.8572C50.1574 40.8572 50.3358 40.8145 50.4971 40.7325C50.6585 40.6506 50.7982 40.5317 50.905 40.3856L62.7478 24.0499C63.0193 23.6713 62.7478 23.1427 62.2835 23.1427ZM59.1407 44.9999H54.555C54.1621 44.9999 53.7978 45.207 53.5835 45.5356C52.5697 47.1463 51.3764 48.6368 50.0264 49.9785C47.706 52.3006 44.9577 54.1513 41.9335 55.4285C38.7983 56.7507 35.4291 57.4285 32.0264 57.4213C28.5907 57.4213 25.255 56.7499 22.1193 55.4285C19.0951 54.1513 16.3469 52.3006 14.0264 49.9785C11.6984 47.6641 9.84473 44.9175 8.56927 41.8927C7.24069 38.7642 6.56927 35.4285 6.56927 31.9999C6.56927 28.5713 7.24069 25.2356 8.56927 22.107C9.84784 19.0785 11.6835 16.357 14.0264 14.0213C16.3693 11.6856 19.0907 9.84989 22.1193 8.57132C25.2545 7.24905 28.6238 6.57131 32.0264 6.57846C35.4621 6.57846 38.7978 7.24989 41.9335 8.57132C44.9621 9.84989 47.6836 11.6856 50.0264 14.0213C51.3836 15.3785 52.5693 16.8642 53.5835 18.4642C53.7907 18.7999 54.1621 18.9999 54.555 18.9999H59.1407C59.5693 18.9999 59.8407 18.5499 59.655 18.1713C54.6264 8.17846 44.3335 1.28561 32.405 1.14275C15.3478 0.942749 1.17641 14.8927 1.14069 31.9427C1.10498 49.007 14.9478 62.857 32.0264 62.857C44.1121 62.857 54.5693 55.9285 59.6478 45.8285C59.6916 45.7416 59.7125 45.645 59.7085 45.5478C59.7045 45.4505 59.6757 45.356 59.6249 45.273C59.5741 45.19 59.503 45.1214 59.4183 45.0736C59.3335 45.0258 59.238 45.0004 59.1407 44.9999Z" fill="#003D4F"/>
</svg>
