<svg width="276" height="54" viewBox="0 0 276 54" fill="none" xmlns="http://www.w3.org/2000/svg">
<g clip-path="url(#clip0_1005_2805)">
<path d="M7.23438 31.9145L17.8591 3.22656H30.9624L20.3368 31.9145H7.23438Z" fill="#6FA800"/>
<path d="M16.6621 41.3439L27.2892 12.6567H40.3939L29.7668 41.3439H16.6621Z" fill="#D5008B"/>
<path d="M26.0938 50.7736L36.7194 22.0864H49.8218L39.197 50.7736H26.0938Z" fill="#0199C6"/>
</g>
<path d="M95.5989 37.5L93.7446 34.2763H81.8483L79.9939 37.5H70.7507L82.7041 18.0437H93.0028L104.956 37.5H95.5989ZM84.8723 28.9985H90.7206L87.8107 23.949L84.8723 28.9985ZM104.825 31.1096V22.7508H111.957V29.7688C111.957 31.2713 113.061 32.0226 115.267 32.0226C117.036 32.0226 119.337 31.6992 122.171 31.0526V22.7508H129.303V37.5H123.026L122.684 36.0165C119.185 37.3098 115.932 37.9565 112.927 37.9565C110.208 37.9565 108.173 37.4144 106.822 36.3303C105.491 35.2272 104.825 33.487 104.825 31.1096ZM133.378 30.8244V28.4565H130.582V22.7508H133.606L134.804 18.8995H140.539V22.7508H151.351V28.4565H140.539V30.0256C140.539 30.8053 140.786 31.3189 141.28 31.5661C141.775 31.8133 142.707 31.937 144.076 31.937C145.902 31.937 148.336 31.6517 151.379 31.0811L152.72 36.7297C149.525 37.5285 146.425 37.9279 143.42 37.9279C140.111 37.9279 137.61 37.3859 135.917 36.3018C134.224 35.1987 133.378 33.3729 133.378 30.8244ZM153.869 37.5V16.1037H161.001V23.949C164.253 22.8649 167.334 22.3229 170.244 22.3229C172.964 22.3229 174.989 22.8745 176.32 23.9776C177.671 25.0616 178.346 26.7924 178.346 29.1697V37.5H171.214V30.5106C171.214 29.0081 170.111 28.2568 167.905 28.2568C166.136 28.2568 163.834 28.5801 161.001 29.2268V37.5H153.869Z" fill="#151515"/>
<path d="M195.008 37.5L185.479 18.0437H189.416L197.319 34.3048L206.134 18.0437H210.385L219.257 34.3048L227.102 18.0437H231.011L221.482 37.5H217.089L208.273 21.3244L199.43 37.5H195.008ZM237.043 17.3019V21.1532H233.791V17.3019H237.043ZM233.791 37.5V23.2073H237.043V37.5H233.791ZM244.342 16.1037V28.485H249.449L257.694 23.2073H262.23L252.33 29.8829L262.601 37.5H258.065L249.306 31.1667H244.342V37.5H241.09V16.1037H244.342ZM267.717 17.3019V21.1532H264.465V17.3019H267.717ZM264.465 37.5V23.2073H267.717V37.5H264.465Z" fill="black"/>
<defs>
<clipPath id="clip0_1005_2805">
<rect width="47.5473" height="47.5473" fill="white" transform="translate(4.75488 3.22656)"/>
</clipPath>
</defs>
</svg>
