<svg width="36" height="36" viewBox="0 0 36 36" fill="none" xmlns="http://www.w3.org/2000/svg">
<path d="M16.0692 25.0714C16.0692 25.5829 16.2724 26.0734 16.6341 26.4351C16.9958 26.7967 17.4863 26.9999 17.9978 26.9999C18.5093 26.9999 18.9998 26.7967 19.3615 26.4351C19.7232 26.0734 19.9264 25.5829 19.9264 25.0714C19.9264 24.5599 19.7232 24.0693 19.3615 23.7077C18.9998 23.346 18.5093 23.1428 17.9978 23.1428C17.4863 23.1428 16.9958 23.346 16.6341 23.7077C16.2724 24.0693 16.0692 24.5599 16.0692 25.0714ZM18.9621 20.5714C19.1389 20.5714 19.2835 20.4267 19.2835 20.2499V9.32137C19.2835 9.14458 19.1389 8.99994 18.9621 8.99994H17.0335C16.8567 8.99994 16.7121 9.14458 16.7121 9.32137V20.2499C16.7121 20.4267 16.8567 20.5714 17.0335 20.5714H18.9621ZM35.0335 13.0178H32.6509C32.5465 13.0178 32.45 13.066 32.3898 13.1504L28.1108 19.0486L26.1058 16.2843C26.0761 16.2429 26.0369 16.2093 25.9914 16.1862C25.946 16.1631 25.8956 16.1513 25.8447 16.1517H23.4621C23.2009 16.1517 23.0483 16.449 23.2009 16.662L27.5884 22.7169C27.6485 22.7991 27.7271 22.866 27.8178 22.9121C27.9086 22.9581 28.009 22.9822 28.1108 22.9822C28.2125 22.9822 28.3129 22.9581 28.4037 22.9121C28.4944 22.866 28.573 22.7991 28.6331 22.7169L35.2947 13.5281C35.4474 13.3151 35.2947 13.0178 35.0335 13.0178ZM33.2657 25.3124H30.6862C30.4652 25.3124 30.2603 25.429 30.1398 25.6138C29.5695 26.5198 28.8982 27.3582 28.1389 28.1129C26.8336 29.4191 25.2878 30.4601 23.5866 31.1785C21.8231 31.9223 19.9279 32.3035 18.0139 32.2995C16.0813 32.2995 14.205 31.9218 12.4411 31.1785C10.74 30.4601 9.19413 29.4191 7.88888 28.1129C6.5794 26.811 5.53668 25.2661 4.81924 23.5647C4.07191 21.8048 3.69424 19.9285 3.69424 17.9999C3.69424 16.0714 4.07191 14.195 4.81924 12.4352C5.53843 10.7316 6.57102 9.20083 7.88888 7.88699C9.20673 6.57315 10.7375 5.54056 12.4411 4.82137C14.2047 4.07759 16.0999 3.69636 18.0139 3.70039C19.9465 3.70039 21.8228 4.07806 23.5866 4.82137C25.2902 5.54056 26.821 6.57315 28.1389 7.88699C28.9023 8.65038 29.5692 9.4861 30.1398 10.3861C30.2563 10.5749 30.4652 10.6874 30.6862 10.6874H33.2657C33.5067 10.6874 33.6594 10.4343 33.555 10.2214C30.7264 4.60039 24.9366 0.723153 18.2268 0.642796C8.63218 0.530296 0.660753 8.37717 0.640664 17.9678C0.620575 27.5665 8.40718 35.3571 18.0139 35.3571C24.8121 35.3571 30.6942 31.4598 33.5509 25.7785C33.5756 25.7296 33.5873 25.6753 33.585 25.6206C33.5828 25.5659 33.5666 25.5127 33.538 25.4661C33.5095 25.4194 33.4695 25.3808 33.4218 25.3539C33.3741 25.327 33.3204 25.3127 33.2657 25.3124Z" fill="white"/>
</svg>
