<svg width="215" height="215" viewBox="0 0 215 215" fill="none" xmlns="http://www.w3.org/2000/svg">
<circle opacity="0.6" cx="107.46" cy="91" r="70" fill="url(#paint0_linear_1005_2861)"/>
<g filter="url(#filter0_d_1005_2861)">
<circle cx="107.46" cy="91" r="42" fill="url(#paint1_linear_1005_2861)"/>
</g>
<rect width="56" height="56" transform="translate(79.46 63)" fill="url(#paint2_linear_1005_2861)"/>
<path d="M124.96 88.375H121.241V76.125C121.241 72.2586 118.108 69.125 114.241 69.125H100.679C96.8123 69.125 93.6787 72.2586 93.6787 76.125V88.375H89.96C88.992 88.375 88.21 89.157 88.21 90.125V111.125C88.21 112.093 88.992 112.875 89.96 112.875H124.96C125.928 112.875 126.71 112.093 126.71 111.125V90.125C126.71 89.157 125.928 88.375 124.96 88.375ZM108.991 101.336V104.234C108.991 104.475 108.794 104.672 108.554 104.672H106.366C106.126 104.672 105.929 104.475 105.929 104.234V101.336C105.477 101.012 105.14 100.553 104.966 100.025C104.792 99.4973 104.79 98.9279 104.961 98.3989C105.131 97.8699 105.465 97.4085 105.914 97.0812C106.363 96.7539 106.904 96.5776 107.46 96.5776C108.016 96.5776 108.557 96.7539 109.006 97.0812C109.455 97.4085 109.789 97.8699 109.959 98.3989C110.13 98.9279 110.128 99.4973 109.954 100.025C109.78 100.553 109.443 101.012 108.991 101.336ZM117.304 88.375H97.6162V76.125C97.6162 74.4352 98.9889 73.0625 100.679 73.0625H114.241C115.931 73.0625 117.304 74.4352 117.304 76.125V88.375Z" fill="#151515"/>
<defs>
<filter id="filter0_d_1005_2861" x="0.177261" y="0.0379753" width="214.565" height="214.565" filterUnits="userSpaceOnUse" color-interpolation-filters="sRGB">
<feFlood flood-opacity="0" result="BackgroundImageFix"/>
<feColorMatrix in="SourceAlpha" type="matrix" values="0 0 0 0 0 0 0 0 0 0 0 0 0 0 0 0 0 0 127 0" result="hardAlpha"/>
<feOffset dy="16.3207"/>
<feGaussianBlur stdDeviation="32.6413"/>
<feColorMatrix type="matrix" values="0 0 0 0 0.212 0 0 0 0 0.238778 0 0 0 0 0.533333 0 0 0 0.06 0"/>
<feBlend mode="normal" in2="BackgroundImageFix" result="effect1_dropShadow_1005_2861"/>
<feBlend mode="normal" in="SourceGraphic" in2="effect1_dropShadow_1005_2861" result="shape"/>
</filter>
<linearGradient id="paint0_linear_1005_2861" x1="90.7377" y1="79.4889" x2="102.501" y2="152.704" gradientUnits="userSpaceOnUse">
<stop stop-color="#CCF1FC"/>
<stop offset="0.993755" stop-color="#CCF1FC" stop-opacity="0"/>
</linearGradient>
<linearGradient id="paint1_linear_1005_2861" x1="97.4266" y1="84.0933" x2="104.485" y2="128.023" gradientUnits="userSpaceOnUse">
<stop stop-color="#CCF1FC"/>
<stop offset="0.993755" stop-color="#CCF1FC" stop-opacity="0"/>
</linearGradient>
<linearGradient id="paint2_linear_1005_2861" x1="21.3111" y1="23.3956" x2="26.0165" y2="52.6817" gradientUnits="userSpaceOnUse">
<stop stop-color="#CCF1FC"/>
<stop offset="0.993755" stop-color="#CCF1FC" stop-opacity="0"/>
</linearGradient>
</defs>
</svg>
