<svg width="32" height="34" viewBox="0 0 32 34" fill="none" xmlns="http://www.w3.org/2000/svg">
<path d="M31.2673 27.4423H28.053V24.2281C28.053 24.0513 27.9084 23.9066 27.7316 23.9066H25.803C25.6262 23.9066 25.4816 24.0513 25.4816 24.2281V27.4423H22.2673C22.0905 27.4423 21.9459 27.587 21.9459 27.7638V29.6923C21.9459 29.8691 22.0905 30.0138 22.2673 30.0138H25.4816V33.2281C25.4816 33.4048 25.6262 33.5495 25.803 33.5495H27.7316C27.9084 33.5495 28.053 33.4048 28.053 33.2281V30.0138H31.2673C31.4441 30.0138 31.5887 29.8691 31.5887 29.6923V27.7638C31.5887 27.587 31.4441 27.4423 31.2673 27.4423ZM10.4347 16.4495C10.3985 16.0999 10.3784 15.7464 10.3784 15.3888C10.3784 14.7499 10.4387 14.1272 10.5512 13.5205C10.5793 13.3758 10.503 13.2272 10.3704 13.1669C9.82398 12.9218 9.32175 12.5843 8.88782 12.1584C8.37651 11.6626 7.97416 11.0657 7.70643 10.4058C7.43871 9.7458 7.3115 9.03727 7.33291 8.32539C7.36907 7.03565 7.88738 5.81021 8.7914 4.8861C9.78381 3.86958 11.1177 3.31512 12.536 3.33119C13.8177 3.34324 15.0552 3.83744 15.9914 4.71333C16.3088 5.01065 16.582 5.34012 16.811 5.69369C16.8914 5.81824 17.0481 5.87047 17.1847 5.82226C17.8918 5.57717 18.6392 5.4044 19.4066 5.32405C19.6316 5.29994 19.7601 5.05887 19.6597 4.85797C18.3539 2.27449 15.686 0.490563 12.6003 0.442349C8.14854 0.374045 4.43604 4.02628 4.43604 8.47806C4.43604 11.0013 5.5972 13.2513 7.41729 14.7258C6.13961 15.3165 4.96238 16.1321 3.94184 17.1526C1.74006 19.3504 0.49452 22.2513 0.414163 25.349C0.413091 25.3919 0.420612 25.4346 0.436285 25.4745C0.451957 25.5145 0.475464 25.5508 0.505418 25.5815C0.535373 25.6122 0.571171 25.6366 0.610701 25.6533C0.650232 25.6699 0.692696 25.6785 0.735592 25.6785H2.98961C3.16238 25.6785 3.30702 25.5419 3.31104 25.3691C3.38738 23.0388 4.33157 20.8571 5.99095 19.2017C7.1722 18.0205 8.61863 17.2008 10.1976 16.8031C10.3503 16.7589 10.4548 16.6102 10.4347 16.4495ZM28.5351 15.3888C28.5351 10.9932 25.0034 7.42137 20.624 7.35306C16.1722 7.28476 12.4637 10.937 12.4637 15.3888C12.4637 17.912 13.6289 20.162 15.445 21.6365C14.1541 22.2349 12.9789 23.0565 11.9735 24.0633C9.77175 26.2611 8.52622 29.162 8.44586 32.2557C8.44479 32.2986 8.45231 32.3413 8.46798 32.3812C8.48365 32.4211 8.50716 32.4575 8.53711 32.4882C8.56707 32.5189 8.60287 32.5433 8.6424 32.56C8.68193 32.5766 8.72439 32.5852 8.76729 32.5852H11.0173C11.1901 32.5852 11.3347 32.4486 11.3387 32.2758C11.4151 29.9455 12.3593 27.7638 14.0186 26.1084C15.7503 24.3767 18.0485 23.4245 20.4994 23.4245C24.9351 23.4245 28.5351 19.8285 28.5351 15.3888ZM24.1356 19.0249C23.1633 19.9973 21.8735 20.5316 20.4994 20.5316C19.1253 20.5316 17.8356 19.9973 16.8633 19.0249C16.3781 18.5423 15.9947 17.9671 15.7359 17.3335C15.4771 16.7 15.3481 16.0209 15.3566 15.3365C15.3686 14.0187 15.895 12.745 16.8151 11.8008C17.7793 10.8124 19.0691 10.262 20.4472 10.2459C21.8093 10.2339 23.1311 10.7642 24.1035 11.7165C25.0999 12.6928 25.6463 13.9986 25.6463 15.3888C25.6423 16.7629 25.1079 18.0526 24.1356 19.0249Z" fill="white"/>
</svg>
