<svg width="36" height="36" viewBox="0 0 36 36" fill="none" xmlns="http://www.w3.org/2000/svg">
<path d="M31.7571 29.6076C31.7652 29.5955 31.7772 29.5835 31.7853 29.5714C34.417 26.4415 36 22.4076 36 18C36 13.5924 34.417 9.55848 31.7893 6.42857C31.7812 6.41652 31.7692 6.40848 31.7612 6.39643C31.717 6.3442 31.6768 6.29598 31.6326 6.24777C31.6165 6.22768 31.6004 6.21161 31.5844 6.19152L31.4196 6.00268L31.4156 5.99866C31.3554 5.93036 31.2911 5.86205 31.2308 5.79375L31.2268 5.78973C31.0982 5.65313 30.9696 5.51652 30.8371 5.38393L30.833 5.37991L30.6402 5.18705L30.6281 5.175C30.5679 5.11473 30.5076 5.05848 30.4473 5.00223C30.4272 4.98214 30.4071 4.96205 30.383 4.94196C30.3429 4.90179 30.3027 4.86562 30.2625 4.82946C30.2504 4.81741 30.2344 4.80536 30.2223 4.78929C27.0161 1.81607 22.721 0 18 0C13.279 0 8.98393 1.81607 5.77366 4.78929C5.76161 4.80134 5.74554 4.81339 5.73348 4.82946C5.6933 4.86562 5.65312 4.9058 5.61295 4.94598C5.59286 4.96607 5.57277 4.98616 5.54866 5.00625C5.48839 5.0625 5.42813 5.12277 5.36786 5.17902L5.3558 5.19107L5.16295 5.38393L5.15893 5.38795C5.02634 5.52054 4.89777 5.65714 4.7692 5.79375L4.76518 5.79777C4.70089 5.86607 4.64062 5.93437 4.58036 6.00268L4.57634 6.0067C4.52009 6.06696 4.46384 6.13125 4.41161 6.19554C4.39554 6.21562 4.37946 6.2317 4.36339 6.25179C4.3192 6.3 4.27902 6.35223 4.23482 6.40045C4.22679 6.4125 4.21473 6.42054 4.2067 6.43259C1.58304 9.55848 0 13.5924 0 18C0 22.4076 1.58304 26.4415 4.21071 29.5714C4.21875 29.5835 4.2308 29.5955 4.23884 29.6076L4.36339 29.7562C4.37946 29.7763 4.39554 29.7924 4.41161 29.8125L4.57634 30.0013C4.57634 30.0054 4.58036 30.0054 4.58036 30.0094C4.64062 30.0777 4.70089 30.146 4.76518 30.2103L4.7692 30.2143C4.89777 30.3509 5.02634 30.4875 5.15491 30.6201L5.15893 30.6241C5.22321 30.6884 5.28348 30.7527 5.34777 30.8129L5.35982 30.825C5.49241 30.9576 5.62902 31.0862 5.76562 31.2107C8.98393 34.1839 13.279 36 18 36C22.721 36 27.0161 34.1839 30.2263 31.2107C30.3632 31.0853 30.4972 30.9566 30.6281 30.825L30.6402 30.8129C30.7045 30.7487 30.7687 30.6884 30.829 30.6241L30.833 30.6201C30.9656 30.4875 31.0942 30.3509 31.2188 30.2143L31.2228 30.2103C31.283 30.142 31.3473 30.0777 31.4076 30.0094C31.4076 30.0054 31.4116 30.0054 31.4116 30.0013C31.4679 29.9411 31.5241 29.8768 31.5763 29.8125C31.5924 29.7924 31.6085 29.7763 31.6246 29.7562C31.67 29.7078 31.7142 29.6582 31.7571 29.6076ZM31.9219 23.8781C31.3674 25.1879 30.6362 26.4013 29.7442 27.5022C28.7396 26.6341 27.6413 25.8807 26.4696 25.2562C26.9357 23.3719 27.225 21.3027 27.3013 19.125H33.067C32.9464 20.7683 32.5607 22.3634 31.9219 23.8781ZM33.067 16.875H27.3013C27.225 14.6973 26.9357 12.6281 26.4696 10.7437C27.6469 10.117 28.7437 9.36161 29.7442 8.49777C31.6831 10.8843 32.8429 13.8083 33.067 16.875ZM23.8781 4.07812C25.4732 4.75312 26.9237 5.68527 28.2013 6.85848C27.4591 7.49046 26.6602 8.05266 25.8147 8.53795C25.1839 6.72991 24.3763 5.15893 23.4362 3.90134C23.5848 3.95759 23.7335 4.01786 23.8781 4.07812ZM20.2379 32.2272C19.8683 32.5165 19.4987 32.7375 19.125 32.8862V25.433C20.7192 25.5443 22.287 25.8993 23.7737 26.4857C23.4402 27.4741 23.0545 28.3862 22.6085 29.2098C21.9094 30.5116 21.0897 31.5522 20.2379 32.2272ZM22.6085 6.79018C23.0504 7.61786 23.4402 8.52991 23.7737 9.51429C22.287 10.1007 20.7192 10.4557 19.125 10.567V3.11786C19.4946 3.26652 19.8683 3.48348 20.2379 3.77679C21.0897 4.44777 21.9094 5.48839 22.6085 6.79018ZM19.125 23.179V19.125H25.0513C24.9871 20.9009 24.7661 22.6246 24.3964 24.2598L24.3844 24.308C22.6982 23.6686 20.925 23.288 19.125 23.179ZM19.125 16.875V12.821C20.9652 12.7085 22.733 12.3187 24.3844 11.692L24.3964 11.7402C24.7661 13.3754 24.9871 15.0951 25.0513 16.875H19.125ZM16.875 19.125V23.179C15.0348 23.2915 13.267 23.6812 11.6156 24.308L11.6036 24.2598C11.2339 22.6246 11.0129 20.9049 10.9487 19.125H16.875ZM10.9487 16.875C11.0129 15.0991 11.2339 13.3754 11.6036 11.7402L11.6156 11.692C13.267 12.3187 15.0308 12.7085 16.875 12.821V16.875H10.9487ZM16.875 25.433V32.8821C16.5054 32.7335 16.1317 32.5165 15.7621 32.2232C14.9103 31.5522 14.0866 30.5076 13.3875 29.2058C12.9455 28.3781 12.5558 27.4661 12.2223 26.4817C13.717 25.8951 15.2719 25.5455 16.875 25.433ZM16.875 10.567C15.2807 10.4557 13.713 10.1007 12.2263 9.51429C12.5598 8.52589 12.9455 7.61384 13.3915 6.79018C14.0906 5.48839 14.9103 4.44375 15.7661 3.77277C16.1357 3.48348 16.5054 3.2625 16.879 3.11384V10.567H16.875ZM12.1219 4.07812C12.2705 4.01786 12.4152 3.95759 12.5638 3.90134C11.6237 5.15893 10.8161 6.72991 10.1853 8.53795C9.34152 8.0558 8.54196 7.4933 7.79866 6.85848C9.07634 5.68527 10.5268 4.75312 12.1219 4.07812ZM4.07812 12.1219C4.63259 10.8121 5.36384 9.59866 6.2558 8.49777C7.25625 9.36161 8.35313 10.117 9.53036 10.7437C9.06429 12.6281 8.775 14.6973 8.69866 16.875H2.93304C3.05357 15.2317 3.43929 13.6366 4.07812 12.1219ZM2.93304 19.125H8.69866C8.775 21.3027 9.06429 23.3719 9.53036 25.2562C8.35867 25.8807 7.26035 26.6341 6.2558 27.5022C4.3169 25.1157 3.1571 22.1917 2.93304 19.125ZM12.1219 31.9219C10.5268 31.2469 9.07634 30.3147 7.79866 29.1415C8.54196 28.5067 9.34152 27.9482 10.1853 27.4621C10.8161 29.2701 11.6237 30.8411 12.5638 32.0987C12.4152 32.0424 12.2665 31.9821 12.1219 31.9219ZM23.8781 31.9219C23.7295 31.9821 23.5848 32.0424 23.4362 32.0987C24.3763 30.8411 25.1839 29.2701 25.8147 27.4621C26.6585 27.9442 27.458 28.5067 28.2013 29.1415C26.9307 30.3098 25.4683 31.2504 23.8781 31.9219Z" fill="white"/>
</svg>
