<svg width="20" height="32" viewBox="0 0 20 32" fill="none" xmlns="http://www.w3.org/2000/svg">
<path d="M18.6308 14.987L0.518307 0.840101C0.470978 0.802841 0.414099 0.779685 0.354204 0.773293C0.294308 0.766901 0.233824 0.777532 0.179698 0.803965C0.125571 0.830399 0.0799992 0.871563 0.0482135 0.92273C0.0164277 0.973897 -0.000282103 1.03299 3.60332e-06 1.09323V4.19903C3.60332e-06 4.39591 0.0924146 4.58474 0.245093 4.70528L14.7094 15.9995L0.245093 27.2937C0.0883967 27.4142 3.60332e-06 27.603 3.60332e-06 27.7999V30.9057C3.60332e-06 31.1749 0.309378 31.3236 0.518307 31.1589L18.6308 17.012C18.7848 16.8919 18.9093 16.7383 18.9949 16.5628C19.0806 16.3874 19.1251 16.1947 19.1251 15.9995C19.1251 15.8042 19.0806 15.6116 18.9949 15.4361C18.9093 15.2607 18.7848 15.1071 18.6308 14.987Z" fill="black" fill-opacity="0.85"/>
</svg>
